# xmcd CD database file
#
# Track frame offsets:
#	150
#	21075
#	38547
#	55502
#	71090
#	86925
#	103907
#	123137
#	136362
#	157752
#	172442
#	188205
#
# Disc length: 2733 seconds
#
# Revision: 2
# Processed by: cddbd v1.5.2PL0 Copyright (c) Steve Scherf et al.
# Submitted via: CDex 1.70beta2
#
DISCID=a00aab0c
DTITLE=Western Union - Ewig auf und ab
DYEAR=1998
DGENRE=Country
TTITLE0=Ich mag die Sonne
TTITLE1=Weil du was ganz besonderes bist
TTITLE2=Mensch, waren das noch Zeiten
TTITLE3=Es gibt immer einen Weg
TTITLE4=Lady Sunshine
TTITLE5=Ewig auf und ab
TTITLE6=Die Erfüllung
TTITLE7=Du und ich
TTITLE8=Sag zu Daddy
TTITLE9=Der Brief
TTITLE10=Gib mir mein Herz zurück
TTITLE11=Heut ist nicht mein Tag
EXTD=Deutsch Country YEAR: 1998
EXTT0=
EXTT1=
EXTT2=
EXTT3=
EXTT4=
EXTT5=
EXTT6=
EXTT7=
EXTT8=
EXTT9=
EXTT10=
EXTT11=
PLAYORDER=
